<svg width="34" height="28" viewBox="0 0 34 28" fill="none" xmlns="http://www.w3.org/2000/svg">
<path d="M16.6249 27.3548C16.3926 27.3558 16.1641 27.2948 15.9623 27.1779C14.2083 26.1466 1.19967 17.8662 0.70624 17.5938C0.00881958 17.2064 0.00881958 16.6651 0.00881958 16.6421V5.02908C0.0106807 4.59872 0.22811 4.19885 0.585935 3.96772L0.669626 3.91642C1.9337 3.13102 6.14263 0.530681 6.81216 0.141515C6.96716 0.0494567 7.14341 0.000633872 7.32302 0C7.48875 0.000941625 7.65168 0.0434814 7.79727 0.123825C7.80773 0.123825 13.6974 4.01548 14.5971 4.36927C15.3189 4.65053 15.7339 4.80089 16.6336 4.80089C17.4242 4.81834 18.2057 4.62564 18.9002 4.24191C19.7633 3.7696 25.4002 0.162742 25.456 0.125594C25.6019 0.0444204 25.7655 0.00126607 25.9319 0C26.1097 0.00189082 26.284 0.0506585 26.4376 0.141515C27.1995 0.574904 32.4302 3.81913 32.6464 3.95711L32.6621 3.96772C33.0285 4.19158 33.2513 4.59511 33.2479 5.02908V16.6404C33.2479 16.6634 33.2357 17.2064 32.5418 17.5938C32.0466 17.8698 19.0467 26.1431 17.2857 27.1744C17.0848 27.2923 16.8569 27.3545 16.6249 27.3548Z" fill="url(#paint0_linear_460_724)"/>
<g style="mix-blend-mode:multiply">
<path d="M16.5637 27.3495H16.6317C16.8635 27.3503 17.0913 27.2893 17.2925 27.1726C19.0535 26.1413 32.0534 17.868 32.5486 17.5921C33.246 17.2047 33.2548 16.6616 33.2548 16.6386V5.02907C33.2564 4.83383 33.2122 4.64098 33.1257 4.46655L16.5637 13.6951V27.3495Z" fill="#F624A0"/>
</g>
<g style="mix-blend-mode:multiply" opacity="0.41">
<path d="M-4.13389e-05 16.6421C-4.13389e-05 16.6651 0.0121842 17.2064 0.706118 17.5938C1.19954 17.868 14.2082 26.1466 15.9622 27.1744C16.1439 27.2799 16.3476 27.3405 16.5567 27.3513V13.6951L0.0766956 4.59921C0.0251316 4.73645 -0.000880985 4.8822 -4.13389e-05 5.02906V16.6421Z" fill="#F58000"/>
</g>
<defs>
<linearGradient id="paint0_linear_460_724" x1="0.000101811" y1="13.6774" x2="33.2479" y2="13.6774" gradientUnits="userSpaceOnUse">
<stop stop-color="#FF9200"/>
<stop offset="0.29" stop-color="#F36D00"/>
<stop offset="0.32" stop-color="#F4680B"/>
<stop offset="0.57" stop-color="#F83C72"/>
<stop offset="0.78" stop-color="#FC1CBE"/>
<stop offset="0.93" stop-color="#FE08ED"/>
<stop offset="1" stop-color="#FF00FF"/>
</linearGradient>
</defs>
</svg>
